:SAMPLES-PER-SECOND 30
:FULLY-SPECIFIED
:DEGREES
375
root  13.1411 32.2084 -13.333 4.89619 -32.3538 4.27237
LeftUpLeg  -41.3282 23.7081 -3.2918
LeftLeg  18.7281 -11.6027 -3.09688
LeftFoot  38.9025 2.5809 -7.29936
LeftToes  -42.1882 1.85109e-006 5.31342e-008
Spine  16.9034 0.645224 2.53957
Spine1  33.1955 1.40295 3.32575
RightShoulder  0.25836 7.8868 -2.17999
RightArm  10.685 12.231 81.4655
RightForeArm  44.9249 71.9431 33.0158
RightHand  0.704377 -12.1803 -6.22126
LeftShoulder1  0.197617 -12.2017 -2.91457
LeftArm  27.1814 7.58025 -45.3344
LeftForeArm  132.55 -72.2249 -146.068
LeftHand  0.11721 -8.36972 -1.97338
HEad  -27.1325 -20.4977 12.0299
RightUpLeg  -32.5353 -0.87768 0.927395
RightLeg  44.9622 -3.38996 -3.00339
RightFoot  -11.9484 0.0856933 1.19647
RightToes  -14.5933 -0.0534127 -0.131994
376
root  13.4407 31.9787 -14.6982 6.16855 -31.3043 4.25273
LeftUpLeg  -40.6753 16.5275 0.550986
LeftLeg  16.0524 -12.0495 -2.62334
LeftFoot  40.5441 2.86435 -7.74478
LeftToes  -41.7143 1.85109e-006 5.31342e-008
Spine  18.7517 -0.00582686 2.84563
Spine1  36.7658 0.248892 2.8772
RightShoulder  0.333971 11.134 -1.28253
RightArm  9.09784 16.432 78.8646
RightForeArm  37.8644 67.2569 25.0377
RightHand  0.759854 -11.6552 -7.06069
LeftShoulder1  0.22662 -12.9272 -2.74618
LeftArm  26.8454 5.82993 -44.6728
LeftForeArm  133.734 -72.3494 -145.772
LeftHand  -0.21976 -9.39333 2.30616
HEad  -28.0593 -19.305 11.3611
RightUpLeg  -36.3291 -1.07003 1.70357
RightLeg  45.1686 -3.69043 -3.28973
RightFoot  -10.2112 0.07115 1.17396
RightToes  -13.1302 -0.0465614 -0.119426
377
root  13.6514 31.9393 -16.0544 7.93436 -30.0994 3.58492
LeftUpLeg  -41.1642 12.9364 2.33479
LeftLeg  15.8571 -11.7122 -2.50963
LeftFoot  38.5753 2.49412 -7.11899
LeftToes  -39.3854 1.85109e-006 5.31342e-008
Spine  20.4835 -0.397328 3.59918
Spine1  40.1679 -0.441679 3.09456
RightShoulder  0.410734 12.9101 -0.157571
RightArm  5.88074 20.3959 76.8556
RightForeArm  28.5077 61.1925 18.792
RightHand  0.740178 -11.9927 -6.6643
LeftShoulder1  0.242718 -12.8521 -2.62754
LeftArm  27.7327 2.27354 -42.9043
LeftForeArm  134.292 -72.502 -145.408
LeftHand  -0.46562 -9.94864 4.97932
HEad  -28.08 -18.8201 10.7733
RightUpLeg  -39.5899 -2.98975 3.63076
RightLeg  43.8725 -3.0081 -2.56783
RightFoot  -7.3886 0.0303176 0.847179
RightToes  -9.16635 -0.0296356 -0.0845417
378
root  13.9489 31.9589 -17.4133 10.1128 -29.7444 3.22411
LeftUpLeg  -42.2691 10.6341 3.33961
LeftLeg  17.6601 -11.7874 -2.91306
LeftFoot  33.2097 1.83516 -6.14865
LeftToes  -31.8079 1.85109e-006 5.31342e-008
Spine  21.8151 0.357967 4.49545
Spine1  42.8194 1.51084 3.02966
RightShoulder  0.556576 13.7073 0.660498
RightArm  -0.372657 22.5019 75.5088
RightForeArm  22.9017 55.6025 14.9765
RightHand  0.74938 -12.7301 -6.33705
LeftShoulder1  0.253315 -13.6771 -2.38953
LeftArm  28.0665 -0.915038 -41.0885
LeftForeArm  134.03 -72.9657 -144.261
LeftHand  -0.634683 -10.5445 6.50397
HEad  -28.3785 -19.8938 10.1437
RightUpLeg  -42.0783 -4.27274 5.31816
RightLeg  39.7258 -2.07373 -1.53014
RightFoot  -4.28326 0.00869762 0.610232
RightToes  -5.77721 -0.0171053 -0.053847
379
root  14.2585 32.036 -18.8206 12.4461 -30.4654 3.57498
LeftUpLeg  -44.5465 12.4182 1.61997
LeftLeg  20.7309 -12.2897 -3.73714
LeftFoot  27.3481 1.2973 -5.32864
LeftToes  -25.1436 1.85109e-006 5.31342e-008
Spine  22.7346 1.49955 5.03365
Spine1  44.6696 4.21786 2.57382
RightShoulder  0.661891 13.9653 0.000616254
RightArm  -7.27029 23.6615 75.1017
RightForeArm  17.7542 54.1522 14.1674
RightHand  1.62236 -20.3728 -8.63828
LeftShoulder1  0.253743 -14.2828 -1.87672
LeftArm  28.478 -3.71803 -40.225
LeftForeArm  132.626 -73.8927 -141.72
LeftHand  -0.831595 -11.1296 8.15475
HEad  -28.7567 -21.031 9.68577
RightUpLeg  -44.8161 -3.71339 6.25474
RightLeg  34.9906 -2.52181 -1.54724
RightFoot  -0.155511 0.000109106 0.460044
RightToes  -4.93167 -0.0142639 -0.0460779
380
root  14.4979 32.0748 -20.2555 13.7308 -32.0293 5.87082
LeftUpLeg  -47.9045 17.669 -4.19984
LeftLeg  25.5434 -12.5254 -4.97598
LeftFoot  21.5471 0.820342 -4.30923
LeftToes  -22.0308 1.85109e-006 5.31342e-008
Spine  23.3001 2.44408 4.61187
Spine1  45.5438 6.65116 0.872884
RightShoulder  0.714915 13.9091 -0.917107
RightArm  -12.0305 24.249 76.1559
RightForeArm  13.634 54.6596 14.4368
RightHand  3.50613 -24.2913 -15.8139
LeftShoulder1  0.254212 -14.8662 -1.41577
LeftArm  29.3632 -5.90049 -38.8062
LeftForeArm  130.676 -74.8161 -138.783
LeftHand  -0.999517 -11.296 9.7168
HEad  -28.9207 -21.8269 9.47494
RightUpLeg  -47.534 -2.07317 5.30297
RightLeg  30.6261 -4.29159 -2.18685
RightFoot  2.69803 0.00376082 0.21779
RightToes  -3.97332 -0.0111824 -0.0372226
381
root  14.6647 32.0222 -21.6231 12.1595 -34.4227 9.54695
LeftUpLeg  -49.2757 21.7087 -9.30641
LeftLeg  32.4839 -11.5167 -6.26827
LeftFoot  14.1504 0.305251 -2.45902
LeftToes  -18.6969 1.85109e-006 5.31342e-008
Spine  24.3753 3.42663 3.38766
Spine1  46.8856 9.46828 -2.43099
RightShoulder  0.790593 13.9963 -1.23851
RightArm  -14.5881 25.0711 76.9767
RightForeArm  11.4381 55.018 14.6315
RightHand  4.48939 -24.7979 -19.8439
LeftShoulder1  0.259959 -15.2779 -0.879932
LeftArm  29.4168 -8.45558 -36.5208
LeftForeArm  127.621 -76.0148 -134.138
LeftHand  -1.20765 -11.6718 11.411
HEad  -28.9225 -22.2644 10.1196
RightUpLeg  -48.9506 0.50011 2.73742
RightLeg  28.4571 -5.04776 -2.33161
RightFoot  1.32589 0.000985975 0.292182
RightToes  -8.95753 -0.0288112 -0.0826723
382
root  14.8556 31.9171 -22.8507 8.26122 -37.3908 14.3298
LeftUpLeg  -49.4365 25.0325 -14.0351
LeftLeg  42.191 -8.6668 -6.8429
LeftFoot  7.29154 0.0315185 -0.494673
LeftToes  -20.6849 1.85109e-006 5.31342e-008
Spine  25.6919 4.35967 1.67555
Spine1  48.1887 12.303 -6.76362
RightShoulder  0.884837 14.1487 -1.50052
RightArm  -14.6842 26.0701 77.728
RightForeArm  9.18792 54.9117 14.5682
RightHand  4.95623 -25.293 -21.4593
LeftShoulder1  0.264588 -15.551 -0.656015
LeftArm  29.2304 -10.6173 -33.7743
LeftForeArm  125.26 -76.9704 -129.457
LeftHand  -1.38828 -11.4649 13.4017
HEad  -28.719 -22.3654 10.7931
RightUpLeg  -49.2031 2.5615 -0.0542889
RightLeg  27.3593 -4.20713 -1.84802
RightFoot  -1.39105 0.00153984 0.504648
RightToes  -13.0276 -0.0460931 -0.118538
383
root  15.1341 31.6968 -24.1318 5.86871 -39.1572 18.5303
LeftUpLeg  -51.3762 27.0763 -19.5812
LeftLeg  53.4768 -4.22474 -4.98962
LeftFoot  -1.10591 0.0107634 1.1152
LeftToes  -24.6442 1.85109e-006 5.31342e-008
Spine  25.9752 4.85861 0.244115
Spine1  47.7399 13.7626 -9.80301
RightShoulder  0.92476 14.2196 -1.45002
RightArm  -14.2331 26.2408 78.0732
RightForeArm  7.25347 54.6461 14.418
RightHand  4.20818 -25.7885 -17.8609
LeftShoulder1  0.267473 -15.944 -0.511391
LeftArm  29.5348 -11.3947 -32.0682
LeftForeArm  124.262 -77.3888 -127.014
LeftHand  -1.44069 -11.1342 14.3391
HEad  -29.0611 -22.3136 11.2195
RightUpLeg  -50.8878 1.10036 -0.216528
RightLeg  26.4016 -0.161961 -0.0733002
RightFoot  -4.22424 -0.00279115 0.301918
RightToes  -14.8877 -0.0548303 -0.134502
384
root  15.3924 31.3528 -25.3973 4.70818 -41.6717 22.2973
LeftUpLeg  -54.8544 30.1493 -26.5527
LeftLeg  65.4512 -1.41929 -2.65442
LeftFoot  -9.49757 0.128948 1.55214
LeftToes  -18.4838 1.85109e-006 5.31342e-008
Spine  25.4343 5.55251 -1.2359
Spine1  45.9833 15.2272 -12.0914
RightShoulder  0.930996 13.94 -1.12401
RightArm  -13.063 25.7905 78.655
RightForeArm  5.70011 54.3346 14.2456
RightHand  3.37804 -25.7041 -14.3555
LeftShoulder1  0.269263 -16.266 -0.33236
LeftArm  30.1312 -11.2075 -31.2402
LeftForeArm  122.503 -77.6848 -125.098
LeftHand  -1.41023 -10.9764 14.2376
HEad  -29.5797 -22.5009 11.2372
RightUpLeg  -53.4184 0.182979 0.783406
RightLeg  24.983 5.0374 1.95677
RightFoot  -5.99535 -0.0407979 -0.401563
RightToes  -19.3837 -0.0780499 -0.171849
385
root  15.5798 30.8797 -26.687 7.40305 -44.7845 23.4162
LeftUpLeg  -60.2168 31.7043 -32.9433
LeftLeg  76.1695 -0.749181 -2.39482
LeftFoot  -12.5616 0.182751 1.66031
LeftToes  -14.8513 1.85109e-006 5.31342e-008
Spine  23.6205 6.18685 -2.27151
Spine1  42.5967 16.08 -12.512
RightShoulder  0.864373 13.3997 -0.798774
RightArm  -11.2656 24.6172 79.483
RightForeArm  3.97682 54.0501 14.0896
RightHand  3.22603 -26.9628 -13.0259
LeftShoulder1  0.269513 -16.1728 -0.462764
LeftArm  31.7897 -9.7003 -31.7614
LeftForeArm  122.172 -77.692 -125.051
LeftHand  -1.41661 -11.5219 13.6105
HEad  -30.0487 -22.4708 10.8983
RightUpLeg  -57.3017 -0.333654 4.89391
RightLeg  22.7737 11.9362 4.09448
RightFoot  -7.11871 -0.121564 -1.57675
RightToes  -27.1247 -0.124631 -0.231493
